<?xml version="1.0" standalone="no"?><!-- Generator: Gravit.io --><svg xmlns="http://www.w3.org/2000/svg" xmlns:xlink="http://www.w3.org/1999/xlink" style="isolation:isolate" viewBox="1308 42.395 36 35.211" width="36" height="35.211"><path d=" M 1325.999 44.395 C 1317.164 44.395 1310 51.559 1310 60.396 C 1310 67.464 1314.584 73.461 1320.943 75.577 C 1321.743 75.724 1322.035 75.231 1322.035 74.807 C 1322.035 74.427 1322.021 73.42 1322.013 72.085 C 1317.563 73.052 1316.624 69.94 1316.624 69.94 C 1315.896 68.092 1314.848 67.6 1314.848 67.6 C 1313.395 66.607 1314.957 66.628 1314.957 66.628 C 1316.563 66.741 1317.408 68.277 1317.408 68.277 C 1318.835 70.723 1321.153 70.016 1322.064 69.607 C 1322.209 68.573 1322.623 67.868 1323.08 67.468 C 1319.527 67.064 1315.792 65.692 1315.792 59.56 C 1315.792 57.813 1316.416 56.385 1317.439 55.267 C 1317.275 54.861 1316.725 53.235 1317.596 51.032 C 1317.596 51.032 1318.94 50.601 1321.996 52.672 C 1323.302 52.317 1324.648 52.136 1326.001 52.133 C 1327.36 52.14 1328.729 52.317 1330.007 52.672 C 1333.061 50.601 1334.403 51.032 1334.403 51.032 C 1335.276 53.235 1334.727 54.861 1334.561 55.267 C 1335.587 56.385 1336.205 57.813 1336.205 59.56 C 1336.205 65.707 1332.464 67.059 1328.9 67.455 C 1329.475 67.948 1329.987 68.925 1329.987 70.417 C 1329.987 72.556 1329.967 74.281 1329.967 74.807 C 1329.967 75.235 1330.255 75.732 1331.067 75.576 C 1337.42 73.455 1342 67.463 1342 60.396 C 1342 51.559 1334.836 44.395 1325.999 44.395 Z " fill-rule="evenodd" fill="none" vector-effect="non-scaling-stroke" stroke-width="1" stroke="rgb(255,255,255)" stroke-linejoin="miter" stroke-linecap="butt" stroke-miterlimit="4"/></svg>