<?xml version="1.0" standalone="no"?><!-- Generator: Gravit.io --><svg xmlns="http://www.w3.org/2000/svg" xmlns:xlink="http://www.w3.org/1999/xlink" style="isolation:isolate" viewBox="1067 114.157 24 19.685" width="24" height="19.685"><path d=" M 1083.421 114.157 C 1080.552 114.157 1078.218 116.49 1078.218 119.359 C 1078.218 119.532 1078.261 119.701 1078.278 119.869 C 1074.73 119.53 1071.593 117.821 1069.462 115.207 C 1069.363 115.081 1069.208 115.013 1069.048 115.025 C 1068.889 115.037 1068.746 115.127 1068.668 115.267 C 1068.205 116.058 1067.962 116.959 1067.963 117.876 C 1067.963 119.028 1068.376 120.083 1069.013 120.949 C 1068.889 120.895 1068.754 120.865 1068.638 120.799 C 1068.49 120.72 1068.311 120.724 1068.167 120.81 C 1068.022 120.896 1067.934 121.051 1067.933 121.219 L 1067.933 121.279 C 1067.933 123.046 1068.848 124.581 1070.197 125.522 C 1070.182 125.52 1070.167 125.526 1070.152 125.522 C 1069.987 125.494 1069.82 125.553 1069.71 125.678 C 1069.6 125.804 1069.563 125.978 1069.612 126.137 C 1070.149 127.803 1071.517 129.076 1073.21 129.54 C 1071.861 130.342 1070.296 130.815 1068.608 130.815 C 1068.242 130.815 1067.892 130.796 1067.543 130.754 C 1067.319 130.724 1067.104 130.856 1067.028 131.07 C 1066.952 131.283 1067.035 131.521 1067.229 131.639 C 1069.464 133.079 1072.066 133.844 1074.725 133.843 C 1079.202 133.843 1082.714 131.973 1085.07 129.3 C 1087.425 126.627 1088.653 123.157 1088.653 119.915 C 1088.653 119.778 1088.642 119.644 1088.638 119.51 C 1089.517 118.837 1090.302 118.048 1090.917 117.126 C 1091.039 116.947 1091.025 116.709 1090.885 116.545 C 1090.745 116.38 1090.513 116.33 1090.317 116.421 C 1090.07 116.532 1089.782 116.543 1089.522 116.631 C 1089.864 116.175 1090.156 115.684 1090.332 115.132 C 1090.391 114.941 1090.327 114.734 1090.171 114.611 C 1090.014 114.488 1089.798 114.475 1089.628 114.577 C 1088.809 115.062 1087.902 115.403 1086.944 115.612 C 1086.014 114.742 1084.791 114.157 1083.421 114.157 Z  M 1083.421 115.117 C 1084.644 115.117 1085.75 115.64 1086.524 116.466 C 1086.641 116.586 1086.811 116.637 1086.974 116.601 C 1087.589 116.479 1088.192 116.298 1088.773 116.062 C 1088.441 116.513 1088.023 116.895 1087.543 117.186 C 1087.325 117.292 1087.221 117.546 1087.302 117.776 C 1087.382 118.005 1087.621 118.138 1087.859 118.085 C 1088.338 118.028 1088.765 117.832 1089.223 117.711 C 1088.814 118.154 1088.362 118.556 1087.874 118.91 C 1087.741 119.007 1087.667 119.166 1087.679 119.33 C 1087.686 119.525 1087.694 119.718 1087.694 119.915 C 1087.694 122.913 1086.543 126.168 1084.35 128.655 C 1082.158 131.142 1078.938 132.883 1074.725 132.883 C 1072.811 132.883 1071.005 132.459 1069.372 131.713 C 1071.397 131.558 1073.263 130.842 1074.77 129.66 C 1074.981 129.666 1075.172 129.532 1075.238 129.331 C 1075.304 129.13 1075.231 128.909 1075.057 128.788 C 1074.884 128.667 1074.651 128.674 1074.485 128.805 C 1072.904 128.776 1071.579 127.856 1070.873 126.556 L 1070.947 126.556 C 1071.421 126.556 1071.89 126.496 1072.327 126.376 C 1072.536 126.314 1072.681 126.119 1072.673 125.9 C 1072.665 125.68 1072.511 125.494 1072.296 125.446 C 1070.589 125.101 1069.309 123.711 1069.013 121.983 C 1069.497 122.15 1069.992 122.281 1070.528 122.298 C 1070.746 122.311 1070.946 122.174 1071.013 121.966 C 1071.08 121.758 1070.997 121.53 1070.812 121.413 C 1069.63 120.624 1068.921 119.297 1068.923 117.876 C 1068.923 117.329 1069.065 116.826 1069.253 116.346 C 1071.652 118.979 1075.01 120.728 1078.803 120.919 C 1078.953 120.926 1079.099 120.864 1079.196 120.75 C 1079.294 120.635 1079.331 120.481 1079.298 120.334 C 1079.22 120.015 1079.18 119.688 1079.178 119.359 C 1079.176 118.234 1079.622 117.153 1080.418 116.357 C 1081.214 115.561 1082.295 115.115 1083.421 115.117 L 1083.421 115.117 Z " fill="rgb(255,255,255)"/></svg>