<svg xmlns="http://www.w3.org/2000/svg" style="isolation:isolate" viewBox="1067 114.157 24 19.685" width="24" height="19.685"><path d="M1083.421 114.157a5.208 5.208 0 0 0-5.203 5.202c0 .173.043.342.06.51-3.548-.339-6.685-2.048-8.816-4.662a.48.48 0 0 0-.794.06 5.154 5.154 0 0 0-.705 2.609c0 1.152.413 2.207 1.05 3.073-.124-.054-.259-.084-.375-.15a.48.48 0 0 0-.705.42v.06c0 1.767.915 3.302 2.264 4.243-.015-.002-.03.004-.045 0a.48.48 0 0 0-.54.615c.537 1.666 1.905 2.939 3.598 3.403a8.963 8.963 0 0 1-5.667 1.214.48.48 0 0 0-.314.885 13.829 13.829 0 0 0 7.496 2.204c4.477 0 7.989-1.87 10.345-4.543 2.355-2.673 3.583-6.143 3.583-9.385 0-.137-.011-.271-.015-.405.879-.673 1.664-1.462 2.279-2.384a.48.48 0 0 0-.6-.705c-.247.111-.535.122-.795.21.342-.456.634-.947.81-1.499a.48.48 0 0 0-.704-.555 9.027 9.027 0 0 1-2.684 1.035c-.93-.87-2.153-1.455-3.523-1.455zm0 .96a4.25 4.25 0 0 1 3.103 1.349c.117.12.287.171.45.135a9.905 9.905 0 0 0 1.799-.539c-.332.451-.75.833-1.23 1.124a.479.479 0 0 0 .316.899c.479-.057.906-.253 1.364-.374a9.146 9.146 0 0 1-1.349 1.199.477.477 0 0 0-.195.42c.007.195.015.388.015.585 0 2.998-1.151 6.253-3.344 8.74-2.192 2.487-5.412 4.228-9.625 4.228-1.914 0-3.72-.424-5.353-1.17 2.025-.155 3.891-.871 5.398-2.053a.479.479 0 1 0-.285-.855c-1.581-.029-2.906-.949-3.612-2.249h.074c.474 0 .943-.06 1.38-.18a.481.481 0 0 0-.031-.93c-1.707-.345-2.987-1.735-3.283-3.463.484.167.979.298 1.515.315a.48.48 0 0 0 .284-.885 4.245 4.245 0 0 1-1.889-3.537c0-.547.142-1.05.33-1.53 2.399 2.633 5.757 4.382 9.55 4.573a.479.479 0 0 0 .495-.585 4.21 4.21 0 0 1-.12-.975 4.236 4.236 0 0 1 4.243-4.242z" fill="#FFF"/></svg>