<svg xmlns="http://www.w3.org/2000/svg" style="isolation:isolate" viewBox="651 290.741 64 47.517" width="64" height="47.517"><path d="M713.218 298.908c-.594-3.266-3.415-5.642-6.682-6.385-4.9-1.039-13.958-1.782-23.759-1.782-9.8 0-19.007.743-23.907 1.782-3.267.743-6.088 2.97-6.682 6.385-.594 3.713-1.188 8.91-1.188 15.592s.594 11.879 1.336 15.592c.594 3.266 3.416 5.642 6.683 6.385 5.197 1.039 14.106 1.782 23.907 1.782 9.8 0 18.71-.743 23.907-1.782 3.267-.743 6.088-2.97 6.682-6.385.594-3.713 1.337-9.058 1.485-15.592-.297-6.682-1.039-11.879-1.782-15.592zm-38.459 25.986v-20.788l18.116 10.394-18.116 10.394z" fill="#FFF"/></svg>