<svg version="1" xmlns="http://www.w3.org/2000/svg" width="933.333" height="933.333" viewBox="0 0 700 700"><path d="M326 .6c-41.6 3.8-80.2 13.2-111.2 27.1l-5.7 2.5-6.4 14.7C175.8 106 160 165.4 153.8 228.5c-1.6 16.8-1.6 71.3 0 86.5 5.9 54.4 17.6 96.5 38.7 139.5 51.5 105.1 145 171 265.9 187.6 11.6 1.6 22.5 2.2 47.1 2.6l32 .5 10.3-7.1c33.5-22.9 63.9-52.4 87-84.9 34.2-47.8 53.9-97.7 62.9-159.7 2.2-15.2 2.5-68.7.5-83.5-3.8-27.8-8.5-48.2-16.6-72.5C644 125 549.5 38.3 433.5 9.9c-27.3-6.7-45.7-8.9-77-9.3-14.3-.2-28-.2-30.5 0zm300.5 267.3c24.6 6.9 44.2 25.3 51.9 49 3.5 10.7 4.6 17.9 4.6 30.3V358H556.8l.6 3.2c2.4 12.1 12.5 24.3 24.9 30.2 9.1 4.3 15.4 5.6 27.4 5.6 15.1 0 27.4-4.1 37.8-12.6l5.3-4.3 9.6 11c5.3 6.1 9.6 11.4 9.6 11.9 0 .4-2.5 3.1-5.6 5.9-15.9 14.6-41.1 21.7-68.1 19.1-25.1-2.3-43.1-10.4-57.4-25.8-15.1-16.1-21.7-35.4-20.6-59.8.7-17 4.3-29 12.6-41.7 11.5-17.5 29.7-29.8 50.8-34.2 10.3-2.1 32.6-1.4 42.8 1.4z"/><path d="M591.4 295.4c-13.5 3.1-23.8 11-29.7 22.8-2 4-4 9.2-4.3 11.5l-.7 4.3h91.5l-.6-3.6c-1.2-6.2-4.6-13.9-8.4-19-4.5-5.9-14.4-12.8-21.5-14.9-7.5-2.3-19.1-2.7-26.3-1.1z"/></svg>