<svg xmlns="http://www.w3.org/2000/svg" style="isolation:isolate" viewBox="131 558.5 556 186" width="556" height="186"><radialGradient id="a" fx=".516" fy=".506" cx=".5" cy=".5" r=".5" gradientTransform="matrix(2.54 -2.265 1.616 2.168 -1.305 -.505)" gradientUnits="userSpaceOnUse"><stop offset=".87%" stop-color="#ff5100"/><stop offset="99.13%" stop-opacity="0" stop-color="#ff5100"/></radialGradient><circle vector-effect="non-scaling-stroke" r="1" transform="matrix(93 0 0 93 224 651.5)" fill="url(#a)"/><path d="M346.52 628.74q8.08 0 12.96 4.72 4.88 4.72 4.88 14v24.48h-10v-23.2q0-5.6-2.64-8.44t-7.52-2.84q-5.52 0-8.72 3.32-3.2 3.32-3.2 9.56v21.6h-10v-42.72h9.52v5.52q2.48-2.96 6.24-4.48 3.76-1.52 8.48-1.52zm50.16 43.76q-6.64 0-11.92-2.8t-8.24-7.8q-2.96-5-2.96-11.32t2.96-11.28q2.96-4.96 8.2-7.76 5.24-2.8 11.96-2.8 6.32 0 11.08 2.56t7.16 7.36l-7.68 4.48q-1.84-2.96-4.6-4.44-2.76-1.48-6.04-1.48-5.6 0-9.28 3.64-3.68 3.64-3.68 9.72t3.64 9.72q3.64 3.64 9.32 3.64 3.28 0 6.04-1.48 2.76-1.48 4.6-4.44l7.68 4.48q-2.48 4.8-7.24 7.4-4.76 2.6-11 2.6zm67.04-21.68q0 1.04-.16 2.96h-33.52q.88 4.72 4.6 7.48 3.72 2.76 9.24 2.76 7.04 0 11.6-4.64l5.36 6.16q-2.88 3.44-7.28 5.2-4.4 1.76-9.92 1.76-7.04 0-12.4-2.8t-8.28-7.8q-2.92-5-2.92-11.32 0-6.24 2.84-11.24t7.88-7.8q5.04-2.8 11.36-2.8 6.24 0 11.16 2.76t7.68 7.76q2.76 5 2.76 11.56zm-21.6-14.08q-4.8 0-8.12 2.84-3.32 2.84-4.04 7.56h24.24q-.64-4.64-3.92-7.52t-8.16-2.88zm31.2 35.2v-59.36h10v59.36h-10zm39.44-43.2q9.44 0 14.44 4.52t5 13.64v25.04h-9.44v-5.2q-1.84 2.8-5.24 4.28-3.4 1.48-8.2 1.48-4.8 0-8.4-1.64-3.6-1.64-5.56-4.56-1.96-2.92-1.96-6.6 0-5.76 4.28-9.24 4.28-3.48 13.48-3.48h11.04v-.64q0-4.48-2.68-6.88-2.68-2.4-7.96-2.4-3.6 0-7.08 1.12t-5.88 3.12l-3.92-7.28q3.36-2.56 8.08-3.92 4.72-1.36 10-1.36zm-1.36 36.48q3.76 0 6.68-1.72t4.12-4.92v-4.96h-10.32q-8.64 0-8.64 5.68 0 2.72 2.16 4.32t6 1.6zm65.44-52.64h10v59.36h-9.6v-5.52q-2.48 3.04-6.12 4.56-3.64 1.52-8.04 1.52-6.16 0-11.08-2.72t-7.72-7.72q-2.8-5-2.8-11.48t2.8-11.44q2.8-4.96 7.72-7.68 4.92-2.72 11.08-2.72 4.24 0 7.76 1.44 3.52 1.44 6 4.32v-21.92zm-12.56 51.36q3.6 0 6.48-1.64 2.88-1.64 4.56-4.68 1.68-3.04 1.68-7.04t-1.68-7.04q-1.68-3.04-4.56-4.68-2.88-1.64-6.48-1.64-3.6 0-6.48 1.64-2.88 1.64-4.56 4.68-1.68 3.04-1.68 7.04t1.68 7.04q1.68 3.04 4.56 4.68 2.88 1.64 6.48 1.64zm67.04-34.72h10v42.72h-9.52v-5.44q-2.4 2.88-6 4.44-3.6 1.56-7.76 1.56-8.56 0-13.48-4.76t-4.92-14.12v-24.4h10v23.04q0 5.76 2.6 8.6t7.4 2.84q5.36 0 8.52-3.32 3.16-3.32 3.16-9.56v-21.6zm36.32 43.28q-5.2 0-10.16-1.36t-7.92-3.44l3.84-7.6q2.88 1.92 6.92 3.08 4.04 1.16 7.96 1.16 8.96 0 8.96-4.72 0-2.24-2.28-3.12-2.28-.88-7.32-1.68-5.28-.8-8.6-1.84-3.32-1.04-5.76-3.64t-2.44-7.24q0-6.08 5.08-9.72 5.08-3.64 13.72-3.64 4.4 0 8.8 1t7.2 2.68l-3.84 7.6q-5.44-3.2-12.24-3.2-4.4 0-6.68 1.32-2.28 1.32-2.28 3.48 0 2.4 2.44 3.4t7.56 1.88q5.12.8 8.4 1.84 3.28 1.04 5.64 3.52t2.36 7.04q0 6-5.2 9.6-5.2 3.6-14.16 3.6zm-354.96-21.68q0 1.04-.16 2.96H279q.88 4.72 4.6 7.48 3.72 2.76 9.24 2.76 7.04 0 11.6-4.64l5.36 6.16q-2.88 3.44-7.28 5.2-4.4 1.76-9.92 1.76-7.04 0-12.4-2.8t-8.28-7.8q-2.92-5-2.92-11.32 0-6.24 2.84-11.24t7.88-7.8q5.04-2.8 11.36-2.8 6.24 0 11.16 2.76t7.68 7.76q2.76 5 2.76 11.56zm-21.6-14.08q-4.8 0-8.12 2.84-3.32 2.84-4.04 7.56h24.24q-.64-4.64-3.92-7.52t-8.16-2.88z" fill-rule="evenodd" fill="#FFF"/></svg>